inDegrees=no
num_controls=7
num_derivatives=13
num_iterations=128
num_multipliers=7
num_parameters=0
num_slacks=7
num_states=26
objective=0.464730
objective_accelerations=0.005318
objective_balance=0.001966
objective_effort=0.004843
objective_height=0.445949
objective_ligament=0.006654
solver_duration=1840.255148
status=Solve_Succeeded
success=true
DataType=double
version=3
OpenSimVersion=4.5
endheader
time	/jointset/ground_pelvis/pelvis_tilt/value	/jointset/ground_pelvis/pelvis_tx/value	/jointset/ground_pelvis/pelvis_ty/value	/jointset/hip_l/hip_flexion_l/value	/jointset/hip_l/hip_adduction_l/value	/jointset/hip_l/hip_rotation_l/value	/jointset/back/lumbar_extension/value	/jointset/patellofemoral_l/patellar_flexion_l/value	/jointset/knee_l/knee_flexion_l/value	/jointset/knee_l/knee_adduction_l/value	/jointset/knee_l/knee_rotation_l/value	/jointset/ankle_l/ankle_angle_l/value	/jointset/subtalar_l/subtalar_angle_l/value	/jointset/ground_pelvis/pelvis_tilt/speed	/jointset/ground_pelvis/pelvis_tx/speed	/jointset/ground_pelvis/pelvis_ty/speed	/jointset/hip_l/hip_flexion_l/speed	/jointset/hip_l/hip_adduction_l/speed	/jointset/hip_l/hip_rotation_l/speed	/jointset/back/lumbar_extension/speed	/jointset/patellofemoral_l/patellar_flexion_l/speed	/jointset/knee_l/knee_flexion_l/speed	/jointset/knee_l/knee_adduction_l/speed	/jointset/knee_l/knee_rotation_l/speed	/jointset/ankle_l/ankle_angle_l/speed	/jointset/subtalar_l/subtalar_angle_l/speed	/forceset/tau_hip_flexion_l	/forceset/tau_hip_adduction_l	/forceset/tau_hip_rotation_l	/forceset/tau_knee_flexion_l	/forceset/tau_ankle_angle_l	/forceset/tau_subtalar_angle_l	/forceset/tau_lumbar_extension	lambda_cid13_p0	lambda_cid13_p1	lambda_cid13_p2	lambda_cid13_p3	lambda_cid13_p4	lambda_cid13_p5	lambda_cid14_p0	/jointset/ground_pelvis/pelvis_tilt/accel	/jointset/ground_pelvis/pelvis_tx/accel	/jointset/ground_pelvis/pelvis_ty/accel	/jointset/hip_l/hip_flexion_l/accel	/jointset/hip_l/hip_adduction_l/accel	/jointset/hip_l/hip_rotation_l/accel	/jointset/back/lumbar_extension/accel	/jointset/patellofemoral_l/patellar_flexion_l/accel	/jointset/knee_l/knee_flexion_l/accel	/jointset/knee_l/knee_adduction_l/accel	/jointset/knee_l/knee_rotation_l/accel	/jointset/ankle_l/ankle_angle_l/accel	/jointset/subtalar_l/subtalar_angle_l/accel	gamma_cid13_p0	gamma_cid13_p1	gamma_cid13_p2	gamma_cid13_p3	gamma_cid13_p4	gamma_cid13_p5	gamma_cid14_p0
0	-0.04631106615103987	0.0719188323382277	0.8962290338610708	0.1955287580552426	-0.3189848918917215	-0.54193196232926	-0.1379045077516729	0.07015288079084103	0.07015288079084844	-0.1745311671715815	-0.1734928290593917	-0.06701059314715049	0.007722524960095345	0	0	0	0	0	0	0	0	0	0	0	0	0	0.06077811248328216	-0.08015167543613201	-0.03702805607668477	-0.2155784209656351	0.2079676207428129	-0.01750543150340842	-0.004079752320550439	30.02745769916967	-3.327373945385421	6.673793726322881	-24.28818299223545	-539.7965014413081	-78.12892344167821	-41.54136372427948	-0.3609582076384486	0.04014004561438564	-0.1360836592939855	1.427119742855027	-0.5421117129508705	0.8188937265863292	-1.58064830784846	2.148756598040871	2.148756598040943	0.0912349764175316	0.01232283426986874	1.076392448792761	-0.00535531925766566	-1.657375614429429e-09	1.7966696173356e-08	1.192300673076226e-10	2.944772188432153e-09	2.765766368297663e-10	4.211739201128787e-09	1.557904603423154e-09
0.01	-0.04632820716258591	0.07192107758880327	0.8962224332859314	0.1955969486614204	-0.3190117181386699	-0.5418912010620052	-0.1379832268370192	0.07025703490535845	0.07025703490535265	-0.1745278633514101	-0.1734911631479365	-0.06695811755570204	0.007721823808543078	-0.003448994713736408	0.0004659044137087554	-0.001316825919723749	0.01356406683136056	-0.005361050465094652	0.008075809365595561	-0.01560259529145114	0.02071564406845625	0.02071564406845015	0.0005941876766505851	0.0003033454141523081	0.01044709369620539	-0.00016130714218856	0.0596341577658278	-0.08863942343226068	-0.03670698213995881	-0.2139853357097951	0.2011642933565437	-0.0084248147803341	-0.00308025130744072	28.17871393017474	-6.708786167175874	6.94034701008744	-23.95468226043681	-540.0944371917807	-85.78170929586076	-41.54319855845827	-0.3399899802058425	0.05234437363201824	-0.128988636840517	1.309940941381778	-0.5324743800861642	0.7904588361810615	-1.528881873451947	2.015691174554531	2.015691174553832	0.03352709901767498	0.03486372105687069	1.021664225984847	-0.02468273986060977	-5.141108792571313e-09	1.081972348404812e-08	7.359389073782543e-09	4.017972006751815e-09	-9.021011103726229e-09	-2.759631876865933e-09	-4.154108674287296e-10
0.02	-0.04638046209665603	0.07192848763039315	0.8962027631358886	0.1957985580935389	-0.3190920294236285	-0.5417719748421694	-0.1382137352220116	0.07056489003320597	0.07056489003320651	-0.1745206143671062	-0.1734873591171504	-0.06680261174810122	0.007718876719936604	-0.007022784506082803	0.001032958202864541	-0.002613914980664718	0.02668376518693438	-0.01069700760209321	0.01569299051658599	-0.03035785992927145	0.04074020266917167	0.04074020266916817	0.0007890327824436789	0.0004276238710663831	0.02060604323042705	-0.0004491874108291427	0.05849020304838327	-0.0971271714283765	-0.03638590820309417	-0.2123922504539785	0.1943609659702726	0.0006558019427514352	-0.002080750294330106	26.34327834041157	-10.09245028288116	7.207169969248392	-23.68438758851119	-540.218159417184	-93.39550969932928	-41.54867784370818	-0.3859172233607384	0.06036992070402008	-0.1321362875374545	1.338246047697551	-0.5370930473318883	0.7271680836652887	-1.411182177122408	2.010539504492668	2.010539504494482	0.01136646224547751	-0.02349055717774742	1.018763616396179	-0.03066994454823639	-8.624841970713196e-09	3.672750794740232e-09	1.459954808025746e-08	5.091171825071476e-09	-1.831859884428222e-08	-9.731002954860654e-09	-2.388726338280613e-09
0.03	-0.04646828128647489	0.07194164436713144	0.8961702444201829	0.1961292658196394	-0.3192253500014031	-0.5415783961189371	-0.1385880719405053	0.07106997085636596	0.07106997085636799	-0.1745126217550582	-0.1734829740533642	-0.06654709016376789	0.007712582729854732	-0.01047699266699509	0.00157257315557032	-0.003883298469002664	0.03938583549968078	-0.01593858903870994	0.02300311273195216	-0.04442433163751155	0.06019429508996718	0.06019429508996438	0.000821947827379771	0.0004556902162880661	0.03043358197816171	-0.0008141615265493694	0.05535792866236341	-0.0909479342300588	-0.03557260803393573	-0.2065719274064811	0.1876684520711471	-0.0008608106454379494	0.0003102458285647307	24.13162448138949	-9.187329293145339	7.223683143275433	-21.88695634765012	-540.3633077338283	-91.10024272539965	-41.55771229729461	-0.3155642398472679	0.04688590725280373	-0.1233636270685814	1.225394774068558	-0.5134146797990472	0.7299860032686781	-1.391606848202554	1.900594565572921	1.900594565571916	0.001125230363793476	0.01690248710410514	0.9550443958202255	-0.04009591185953434	-1.027066783723997e-08	6.345854335549552e-09	1.621331460541477e-08	6.452382371744388e-09	-2.516918302152631e-08	-1.098008761285402e-08	-2.394565303800237e-09
